<mxfile host="app.diagrams.net" modified="2021-04-22T07:42:06.398Z" agent="5.0 (Windows NT 10.0; Win64; x64) AppleWebKit/537.36 (KHTML, like Gecko) Chrome/71.0.3578.98 Safari/537.36" etag="7jjpwd8of0YJmEf5qhl4" version="14.6.3" type="github">
  <diagram id="C5RBs43oDa-KdzZeNtuy" name="Page-1">
    <mxGraphModel dx="2062" dy="1194" grid="1" gridSize="10" guides="1" tooltips="1" connect="1" arrows="1" fold="1" page="1" pageScale="1" pageWidth="827" pageHeight="1169" math="0" shadow="0">
      <root>
        <mxCell id="WIyWlLk6GJQsqaUBKTNV-0" />
        <mxCell id="WIyWlLk6GJQsqaUBKTNV-1" parent="WIyWlLk6GJQsqaUBKTNV-0" />
        <mxCell id="WIyWlLk6GJQsqaUBKTNV-4" value="no" style="rounded=0;html=1;jettySize=auto;orthogonalLoop=1;fontSize=11;endArrow=block;endFill=0;endSize=8;strokeWidth=1;shadow=0;labelBackgroundColor=none;edgeStyle=orthogonalEdgeStyle;" parent="WIyWlLk6GJQsqaUBKTNV-1" source="WIyWlLk6GJQsqaUBKTNV-6" target="WIyWlLk6GJQsqaUBKTNV-10" edge="1">
          <mxGeometry y="20" relative="1" as="geometry">
            <mxPoint as="offset" />
          </mxGeometry>
        </mxCell>
        <mxCell id="WIyWlLk6GJQsqaUBKTNV-5" value="yes" style="edgeStyle=orthogonalEdgeStyle;rounded=0;html=1;jettySize=auto;orthogonalLoop=1;fontSize=11;endArrow=block;endFill=0;endSize=8;strokeWidth=1;shadow=0;labelBackgroundColor=none;" parent="WIyWlLk6GJQsqaUBKTNV-1" source="WIyWlLk6GJQsqaUBKTNV-6" target="WIyWlLk6GJQsqaUBKTNV-7" edge="1">
          <mxGeometry y="10" relative="1" as="geometry">
            <mxPoint as="offset" />
          </mxGeometry>
        </mxCell>
        <mxCell id="WIyWlLk6GJQsqaUBKTNV-6" value="maxSize&amp;lt;0" style="rhombus;whiteSpace=wrap;html=1;shadow=0;fontFamily=Helvetica;fontSize=12;align=center;strokeWidth=1;spacing=6;spacingTop=-4;" parent="WIyWlLk6GJQsqaUBKTNV-1" vertex="1">
          <mxGeometry x="170" y="170" width="100" height="80" as="geometry" />
        </mxCell>
        <mxCell id="WIyWlLk6GJQsqaUBKTNV-7" value="&lt;pre style=&quot;background-color: rgb(255 , 255 , 255) ; font-family: &amp;#34;consolas&amp;#34; ; font-size: 10.8pt&quot;&gt;&lt;span style=&quot;color: #000080 ; font-weight: bold&quot;&gt;throw new &lt;/span&gt;IllegalArgumentException&lt;/pre&gt;" style="rounded=1;whiteSpace=wrap;html=1;fontSize=12;glass=0;strokeWidth=1;shadow=0;" parent="WIyWlLk6GJQsqaUBKTNV-1" vertex="1">
          <mxGeometry x="320" y="190" width="330" height="40" as="geometry" />
        </mxCell>
        <mxCell id="WIyWlLk6GJQsqaUBKTNV-8" value="能" style="rounded=0;html=1;jettySize=auto;orthogonalLoop=1;fontSize=11;endArrow=block;endFill=0;endSize=8;strokeWidth=1;shadow=0;labelBackgroundColor=none;edgeStyle=orthogonalEdgeStyle;" parent="WIyWlLk6GJQsqaUBKTNV-1" source="WIyWlLk6GJQsqaUBKTNV-10" edge="1">
          <mxGeometry y="10" relative="1" as="geometry">
            <mxPoint as="offset" />
            <mxPoint x="220" y="410" as="targetPoint" />
          </mxGeometry>
        </mxCell>
        <mxCell id="WIyWlLk6GJQsqaUBKTNV-9" value="不能" style="edgeStyle=orthogonalEdgeStyle;rounded=0;html=1;jettySize=auto;orthogonalLoop=1;fontSize=11;endArrow=block;endFill=0;endSize=8;strokeWidth=1;shadow=0;labelBackgroundColor=none;exitX=1;exitY=0.5;exitDx=0;exitDy=0;" parent="WIyWlLk6GJQsqaUBKTNV-1" source="WIyWlLk6GJQsqaUBKTNV-10" target="WIyWlLk6GJQsqaUBKTNV-12" edge="1">
          <mxGeometry y="10" relative="1" as="geometry">
            <mxPoint as="offset" />
            <mxPoint x="320" y="430" as="sourcePoint" />
          </mxGeometry>
        </mxCell>
        <mxCell id="WIyWlLk6GJQsqaUBKTNV-10" value="能否找到对应的物理位置信息" style="rhombus;whiteSpace=wrap;html=1;shadow=0;fontFamily=Helvetica;fontSize=12;align=center;strokeWidth=1;spacing=6;spacingTop=-4;" parent="WIyWlLk6GJQsqaUBKTNV-1" vertex="1">
          <mxGeometry x="170" y="290" width="100" height="80" as="geometry" />
        </mxCell>
        <mxCell id="WIyWlLk6GJQsqaUBKTNV-12" value="return null" style="rounded=1;whiteSpace=wrap;html=1;fontSize=12;glass=0;strokeWidth=1;shadow=0;" parent="WIyWlLk6GJQsqaUBKTNV-1" vertex="1">
          <mxGeometry x="430" y="310" width="120" height="40" as="geometry" />
        </mxCell>
        <mxCell id="07PyxTeU6L3mYRG1JjGB-0" value="&lt;h1&gt;&lt;pre style=&quot;background-color: rgb(255 , 255 , 255) ; font-family: &amp;#34;consolas&amp;#34; ; font-size: 10.8pt&quot;&gt;&lt;span style=&quot;color: rgb(0 , 0 , 128)&quot;&gt;def &lt;/span&gt;read(startOffset: Long,&lt;span style=&quot;color: #808080 ; font-style: italic&quot;&gt;//&lt;/span&gt;&lt;span style=&quot;color: #808080 ; font-style: italic ; font-family: &amp;#34;宋体&amp;#34;&quot;&gt;开始偏移量&lt;br&gt;&lt;/span&gt;&lt;span style=&quot;color: #808080 ; font-style: italic ; font-family: &amp;#34;宋体&amp;#34;&quot;&gt;         &lt;/span&gt;maxSize: Int,&lt;span style=&quot;color: #808080 ; font-style: italic&quot;&gt;//&lt;/span&gt;&lt;span style=&quot;color: #808080 ; font-style: italic ; font-family: &amp;#34;宋体&amp;#34;&quot;&gt;读取最大的字节数&lt;br&gt;&lt;/span&gt;&lt;span style=&quot;color: #808080 ; font-style: italic ; font-family: &amp;#34;宋体&amp;#34;&quot;&gt;         &lt;/span&gt;maxPosition: Long = size,&lt;span style=&quot;color: #808080 ; font-style: italic&quot;&gt;//&lt;/span&gt;&lt;span style=&quot;color: #808080 ; font-style: italic ; font-family: &amp;#34;宋体&amp;#34;&quot;&gt;读取的最大文件位置&lt;br&gt;&lt;/span&gt;&lt;span style=&quot;color: #808080 ; font-style: italic ; font-family: &amp;#34;宋体&amp;#34;&quot;&gt;         &lt;/span&gt;minOneMessage: Boolean = &lt;span style=&quot;color: rgb(0 , 0 , 128)&quot;&gt;false&lt;/span&gt;&lt;span style=&quot;color: #808080 ; font-style: italic&quot;&gt;//&lt;/span&gt;&lt;span style=&quot;color: #808080 ; font-style: italic ; font-family: &amp;#34;宋体&amp;#34;&quot;&gt;如果为&lt;/span&gt;&lt;span style=&quot;color: #808080 ; font-style: italic&quot;&gt;true &lt;/span&gt;&lt;span style=&quot;color: #808080 ; font-style: italic ; font-family: &amp;#34;宋体&amp;#34;&quot;&gt;即使大于最大位移值 也返回第一条数据  避免消费饿死&lt;br&gt;&lt;/span&gt;&lt;span style=&quot;color: #808080 ; font-style: italic ; font-family: &amp;#34;宋体&amp;#34;&quot;&gt;        &lt;/span&gt;): FetchDataInfo&lt;/pre&gt;&lt;/h1&gt;" style="text;html=1;strokeColor=none;fillColor=none;spacing=5;spacingTop=-20;whiteSpace=wrap;overflow=hidden;rounded=0;" vertex="1" parent="WIyWlLk6GJQsqaUBKTNV-1">
          <mxGeometry x="40" y="30" width="780" height="100" as="geometry" />
        </mxCell>
        <mxCell id="07PyxTeU6L3mYRG1JjGB-2" value="结束" style="rounded=1;whiteSpace=wrap;html=1;" vertex="1" parent="WIyWlLk6GJQsqaUBKTNV-1">
          <mxGeometry x="570" y="560" width="130" height="60" as="geometry" />
        </mxCell>
        <mxCell id="07PyxTeU6L3mYRG1JjGB-5" value="是" style="edgeStyle=orthogonalEdgeStyle;rounded=0;orthogonalLoop=1;jettySize=auto;html=1;exitX=0.5;exitY=1;exitDx=0;exitDy=0;entryX=0.5;entryY=0;entryDx=0;entryDy=0;" edge="1" parent="WIyWlLk6GJQsqaUBKTNV-1" source="07PyxTeU6L3mYRG1JjGB-3" target="07PyxTeU6L3mYRG1JjGB-4">
          <mxGeometry relative="1" as="geometry" />
        </mxCell>
        <mxCell id="07PyxTeU6L3mYRG1JjGB-7" value="否" style="edgeStyle=orthogonalEdgeStyle;rounded=0;orthogonalLoop=1;jettySize=auto;html=1;exitX=1;exitY=0.5;exitDx=0;exitDy=0;entryX=0.5;entryY=0;entryDx=0;entryDy=0;" edge="1" parent="WIyWlLk6GJQsqaUBKTNV-1" source="07PyxTeU6L3mYRG1JjGB-3" target="07PyxTeU6L3mYRG1JjGB-6">
          <mxGeometry relative="1" as="geometry" />
        </mxCell>
        <mxCell id="07PyxTeU6L3mYRG1JjGB-3" value="是否必须读取一条数据&lt;br&gt;即使大于maxSize" style="rhombus;whiteSpace=wrap;html=1;" vertex="1" parent="WIyWlLk6GJQsqaUBKTNV-1">
          <mxGeometry x="155" y="410" width="130" height="110" as="geometry" />
        </mxCell>
        <mxCell id="07PyxTeU6L3mYRG1JjGB-9" style="edgeStyle=orthogonalEdgeStyle;rounded=0;orthogonalLoop=1;jettySize=auto;html=1;exitX=0.5;exitY=1;exitDx=0;exitDy=0;entryX=0.45;entryY=0.038;entryDx=0;entryDy=0;entryPerimeter=0;" edge="1" parent="WIyWlLk6GJQsqaUBKTNV-1" source="07PyxTeU6L3mYRG1JjGB-4" target="07PyxTeU6L3mYRG1JjGB-11">
          <mxGeometry relative="1" as="geometry">
            <mxPoint x="281" y="697" as="targetPoint" />
          </mxGeometry>
        </mxCell>
        <mxCell id="07PyxTeU6L3mYRG1JjGB-4" value="将定位到的第一条消息的大小赋值给adjustedMaxSize" style="rounded=1;whiteSpace=wrap;html=1;" vertex="1" parent="WIyWlLk6GJQsqaUBKTNV-1">
          <mxGeometry x="160" y="585" width="120" height="60" as="geometry" />
        </mxCell>
        <mxCell id="07PyxTeU6L3mYRG1JjGB-10" style="edgeStyle=orthogonalEdgeStyle;rounded=0;orthogonalLoop=1;jettySize=auto;html=1;exitX=0.5;exitY=1;exitDx=0;exitDy=0;entryX=0.592;entryY=0.113;entryDx=0;entryDy=0;entryPerimeter=0;" edge="1" parent="WIyWlLk6GJQsqaUBKTNV-1" source="07PyxTeU6L3mYRG1JjGB-6" target="07PyxTeU6L3mYRG1JjGB-11">
          <mxGeometry relative="1" as="geometry">
            <mxPoint x="290" y="700" as="targetPoint" />
          </mxGeometry>
        </mxCell>
        <mxCell id="07PyxTeU6L3mYRG1JjGB-6" value="&amp;nbsp;adjustedMaxSize=maxSize" style="rounded=1;whiteSpace=wrap;html=1;" vertex="1" parent="WIyWlLk6GJQsqaUBKTNV-1">
          <mxGeometry x="320" y="580" width="160" height="60" as="geometry" />
        </mxCell>
        <mxCell id="07PyxTeU6L3mYRG1JjGB-14" value="是" style="edgeStyle=orthogonalEdgeStyle;rounded=0;orthogonalLoop=1;jettySize=auto;html=1;exitX=1;exitY=0.5;exitDx=0;exitDy=0;entryX=0;entryY=0.5;entryDx=0;entryDy=0;" edge="1" parent="WIyWlLk6GJQsqaUBKTNV-1" source="07PyxTeU6L3mYRG1JjGB-11" target="07PyxTeU6L3mYRG1JjGB-13">
          <mxGeometry relative="1" as="geometry" />
        </mxCell>
        <mxCell id="07PyxTeU6L3mYRG1JjGB-19" style="edgeStyle=orthogonalEdgeStyle;rounded=0;orthogonalLoop=1;jettySize=auto;html=1;entryX=0.342;entryY=0.022;entryDx=0;entryDy=0;entryPerimeter=0;" edge="1" parent="WIyWlLk6GJQsqaUBKTNV-1" source="07PyxTeU6L3mYRG1JjGB-11" target="07PyxTeU6L3mYRG1JjGB-15">
          <mxGeometry relative="1" as="geometry" />
        </mxCell>
        <mxCell id="07PyxTeU6L3mYRG1JjGB-11" value="adjustedMaxSize&lt;br&gt;是否为0" style="rhombus;whiteSpace=wrap;html=1;" vertex="1" parent="WIyWlLk6GJQsqaUBKTNV-1">
          <mxGeometry x="220" y="710" width="120" height="80" as="geometry" />
        </mxCell>
        <mxCell id="07PyxTeU6L3mYRG1JjGB-13" value="返回空的&lt;span style=&quot;font-style: italic ; background-color: rgb(255 , 255 , 255) ; font-family: &amp;#34;consolas&amp;#34; ; font-size: 10.8pt&quot;&gt;FetchDataInfo对象&lt;/span&gt;" style="rounded=1;whiteSpace=wrap;html=1;" vertex="1" parent="WIyWlLk6GJQsqaUBKTNV-1">
          <mxGeometry x="430" y="720" width="150" height="60" as="geometry" />
        </mxCell>
        <mxCell id="07PyxTeU6L3mYRG1JjGB-15" value="&lt;pre style=&quot;background-color: rgb(255 , 255 , 255) ; font-family: &amp;#34;consolas&amp;#34; ; font-size: 10.8pt&quot;&gt;&lt;span style=&quot;color: #000080 ; font-weight: bold&quot;&gt;val &lt;/span&gt;fetchSize: Int = &lt;span style=&quot;font-style: italic&quot;&gt;min&lt;/span&gt;((maxPosition - startPosition).toInt, adjustedMaxSize)&lt;/pre&gt;&lt;pre style=&quot;background-color: rgb(255 , 255 , 255) ; font-family: &amp;#34;consolas&amp;#34; ; font-size: 10.8pt&quot;&gt;能够读取的消息的大小=min( 日志段中能读取消息的最大位置-开始位置=需多能读的偏移量,adjustedMaxSize)&lt;/pre&gt;" style="rounded=1;whiteSpace=wrap;html=1;" vertex="1" parent="WIyWlLk6GJQsqaUBKTNV-1">
          <mxGeometry x="30" y="840" width="730" height="90" as="geometry" />
        </mxCell>
      </root>
    </mxGraphModel>
  </diagram>
</mxfile>
